<svg width="90" height="80" viewBox="0 0 90 80" fill="none" xmlns="http://www.w3.org/2000/svg">
<ellipse cx="45" cy="40" rx="45" ry="40" fill="#DCA338"/>
<ellipse cx="44.7115" cy="36.5957" rx="44.7115" ry="36.5957" fill="#F6C944"/>
<path fill-rule="evenodd" clip-rule="evenodd" d="M14.0774 58.486C17.1907 61.9448 21.0771 64.8488 25.5097 67L78 23.5668C75.7671 19.5828 72.6432 16.0481 68.8548 13.1603L14.0774 58.486ZM53.8347 6.14305C50.6733 5.39766 47.3482 5 43.9166 5C22.9758 5 6 19.8086 6 38.076C6 40.4612 6.28942 42.7875 6.8393 45.0295L53.8347 6.14305Z" fill="#FBE84D"/>
<path d="M60.0794 23.5424C59.4272 23.2676 58.7099 23.0929 57.9685 23.0282C57.2272 22.9636 56.4763 23.0103 55.7588 23.1657C55.0412 23.3211 54.3711 23.5821 53.7866 23.9339C53.2022 24.2857 52.7149 24.7213 52.3525 25.2159L41.8048 39.6069L35.7682 35.0303C35.2441 34.6189 34.6171 34.2907 33.924 34.065C33.2308 33.8392 32.4853 33.7204 31.7309 33.7154C30.9765 33.7105 30.2284 33.8195 29.5301 34.036C28.8319 34.2526 28.1975 34.5725 27.6641 34.9769C27.1306 35.3813 26.7088 35.8623 26.4231 36.3916C26.1374 36.921 25.9937 37.4882 26.0002 38.0601C26.0068 38.6321 26.1635 39.1973 26.4613 39.7228C26.759 40.2483 27.1919 40.7236 27.7345 41.121L39.0976 49.7358C40.1714 50.552 41.6201 51 43.1144 51L43.9013 50.9569C44.7721 50.8646 45.6028 50.6202 46.3279 50.2431C47.053 49.8661 47.6528 49.3665 48.08 48.7838L62.2838 29.4005C62.6465 28.9061 62.8771 28.3624 62.9626 27.8005C63.0481 27.2385 62.9867 26.6693 62.782 26.1253C62.5773 25.5813 62.2333 25.0733 61.7696 24.6301C61.3058 24.1869 60.7315 23.8173 60.0794 23.5424Z" fill="#C17E2B"/>
</svg>
