<svg width="89" height="79" viewBox="0 0 89 79" fill="none" xmlns="http://www.w3.org/2000/svg">
<ellipse cx="44.5" cy="39.5" rx="44.5" ry="39.5" fill="#3EAAF8"/>
<ellipse cx="44.2147" cy="36.1383" rx="44.2147" ry="36.1383" fill="#69BDFA"/>
<path d="M42.5172 23.6786C42.5172 25.7151 41.6453 27.6681 40.0933 29.1081C38.5413 30.5482 36.4363 31.3571 34.2414 31.3571C32.0465 31.3571 29.9415 30.5482 28.3895 29.1081C26.8374 27.6681 25.9655 25.7151 25.9655 23.6786C25.9655 21.6421 26.8374 19.689 28.3895 18.249C29.9415 16.809 32.0465 16 34.2414 16C36.4363 16 38.5413 16.809 40.0933 18.249C41.6453 19.689 42.5172 21.6421 42.5172 23.6786ZM54.1034 28.2857C52.3345 28.2845 50.5747 28.5225 48.8797 28.9921C48.1175 28.0847 47.6453 26.9969 47.5168 25.8526C47.3883 24.7084 47.6087 23.5536 48.1529 22.5199C48.6971 21.4861 49.5433 20.615 50.5951 20.0056C51.6468 19.3963 52.8618 19.0732 54.1018 19.0732C55.3418 19.0732 56.5568 19.3963 57.6085 20.0056C58.6603 20.615 59.5065 21.4861 60.0507 22.5199C60.5949 23.5536 60.8153 24.7084 60.6868 25.8526C60.5583 26.9969 60.0861 28.0847 59.3239 28.9921C57.6299 28.5228 55.8713 28.2848 54.1034 28.2857ZM25.9655 34.4286H40.0577C37.3625 37.4523 35.8907 41.2548 35.8966 45.1786C35.8966 46.2044 35.9926 47.2047 36.1846 48.1794C35.5688 48.2265 34.9211 48.25 34.2414 48.25C21 48.25 21 39.2661 21 39.2661V39.0357C21 37.8138 21.5232 36.642 22.4544 35.778C23.3856 34.914 24.6486 34.4286 25.9655 34.4286ZM69 45.1786C69 48.8442 67.4305 52.3598 64.6369 54.9518C61.8433 57.5438 58.0543 59 54.1034 59C50.1526 59 46.3636 57.5438 43.57 54.9518C40.7764 52.3598 39.2069 48.8442 39.2069 45.1786C39.2069 41.5129 40.7764 37.9974 43.57 35.4053C46.3636 32.8133 50.1526 31.3571 54.1034 31.3571C58.0543 31.3571 61.8433 32.8133 64.6369 35.4053C67.4305 37.9974 69 41.5129 69 45.1786ZM55.6792 37.07C55.5836 36.7504 55.3777 36.4687 55.0931 36.268C54.8086 36.0672 54.4609 35.9586 54.1034 35.9586C53.746 35.9586 53.3983 36.0672 53.1138 36.268C52.8292 36.4687 52.6233 36.7504 52.5277 37.07L50.9487 41.7754H45.8276C44.2254 41.7754 43.5567 43.7626 44.8543 44.6749L48.9923 47.5835L47.4132 52.2889C46.9167 53.7632 48.6646 54.9918 49.9622 54.0796L54.1001 51.1709L58.2381 54.0796C59.5357 54.9918 61.2836 53.7632 60.787 52.2889L59.208 47.5835L63.3459 44.6749C64.6436 43.7626 63.9749 41.7754 62.3727 41.7754H57.2549L55.6792 37.07Z" fill="white"/>
</svg>
